<?xml version="1.0" encoding="UTF-8"?>
<svg width="974px" height="974px" viewBox="0 0 974 974" version="1.1" xmlns="http://www.w3.org/2000/svg" xmlns:xlink="http://www.w3.org/1999/xlink">
    <!-- Generator: Sketch 49.1 (51147) - http://www.bohemiancoding.com/sketch -->
    <title>Shape</title>
    <desc>Created with Sketch.</desc>
    <defs></defs>
    <g id="logo2" stroke="none" stroke-width="1" fill="none" fill-rule="evenodd">
        <g id="Artboard-7-Copy-7" transform="translate(-281.000000, -102.000000)" fill="#FFFFFF" fill-rule="nonzero">
            <g id="Group" transform="translate(165.000000, -14.000000)">
                <path d="M554.239459,131.184691 C554.239459,137.261333 549.313367,142.187425 543.236724,142.187425 C537.160081,142.187425 532.233989,137.261333 532.233989,131.184691 C532.233989,125.108048 537.160081,120.181956 543.236724,120.181956 C549.313367,120.181956 554.239459,125.108048 554.239459,131.184691 Z M738.874796,143.568768 C738.874796,149.645411 733.948704,154.571503 727.872061,154.571503 C721.795419,154.571503 716.869327,149.645411 716.869327,143.568768 C716.869327,137.492126 721.795419,132.566033 727.872061,132.566033 C733.948704,132.566033 738.874796,137.492126 738.874796,143.568768 Z M377.484898,189.727602 C377.484898,195.804245 372.558806,200.730337 366.482163,200.730337 C360.405521,200.730337 355.479428,195.804245 355.479428,189.727602 C355.479428,183.65096 360.405521,178.724868 366.482163,178.724868 C372.558806,178.724868 377.484898,183.65096 377.484898,189.727602 Z M237.88257,311.316727 C237.88257,317.39337 232.956478,322.319462 226.879835,322.319462 C220.803192,322.319462 215.8771,317.39337 215.8771,311.316727 C215.8771,305.240084 220.803192,300.313992 226.879835,300.313992 C232.956478,300.313992 237.88257,305.240084 237.88257,311.316727 Z M1086.75479,543.236724 C1086.75479,549.313367 1081.8287,554.239459 1075.75206,554.239459 C1069.67541,554.239459 1064.74932,549.313367 1064.74932,543.236724 C1064.74932,537.160081 1069.67541,532.233989 1075.75206,532.233989 C1081.8287,532.233989 1086.75479,537.160081 1086.75479,543.236724 Z M905.49693,226.879834 C905.49693,230.810733 903.399821,234.443033 899.995563,236.408483 C896.591305,238.373932 892.397086,238.373932 888.992827,236.408483 C885.588569,234.443033 883.49146,230.810733 883.49146,226.879834 C883.491461,220.803192 888.417553,215.8771 894.494195,215.8771 C900.570837,215.8771 905.496929,220.803192 905.49693,226.879834 Z M1073.24489,727.872061 C1073.24489,733.948704 1068.3188,738.874796 1062.24215,738.874796 C1056.16551,738.874796 1051.23942,733.948704 1051.23942,727.872061 C1051.23942,721.795419 1056.16551,716.869327 1062.24215,716.869327 C1068.3188,716.869327 1073.24489,721.795419 1073.24489,727.872061 Z M322.319462,980.056912 C322.319462,986.133555 317.39337,991.059647 311.316727,991.059647 C305.240084,991.059647 300.313992,986.133555 300.313992,980.056912 C300.313992,973.98027 305.240084,969.054178 311.316727,969.054178 C317.39337,969.054178 322.319462,973.98027 322.319462,980.056912 Z M1027.08605,366.482163 C1027.08605,372.558806 1022.15996,377.484898 1016.08332,377.484898 C1010.00668,377.484898 1005.08058,372.558806 1005.08058,366.482163 C1005.08058,360.405521 1010.00668,355.479428 1016.08332,355.479428 C1022.15996,355.479428 1027.08605,360.405521 1027.08605,366.482163 Z M991.059647,894.494195 C991.059647,900.570838 986.133555,905.49693 980.056912,905.49693 C973.98027,905.49693 969.054178,900.570838 969.054178,894.494195 C969.054178,888.417552 973.98027,883.49146 980.056912,883.49146 C986.133555,883.49146 991.059647,888.417552 991.059647,894.494195 Z M200.730337,839.328759 C200.730337,845.405401 195.804245,850.331494 189.727602,850.331494 C183.65096,850.331494 178.724868,845.405401 178.724868,839.328759 C178.724868,833.252116 183.65096,828.326024 189.727602,828.326024 C195.804245,828.326024 200.730337,833.252116 200.730337,839.328759 Z M142.187425,663.700023 C142.187425,669.776666 137.261333,674.702758 131.184691,674.702758 C125.108048,674.702758 120.181956,669.776666 120.181956,663.700023 C120.181956,657.623381 125.108048,652.697289 131.184691,652.697289 C137.261333,652.697289 142.187425,657.623381 142.187425,663.700023 Z M674.702758,1075.75206 C674.702758,1081.8287 669.776666,1086.75479 663.700023,1086.75479 C657.623381,1086.75479 652.697289,1081.8287 652.697289,1075.75206 C652.697289,1069.67541 657.623381,1064.74932 663.700023,1064.74932 C669.776666,1064.74932 674.702758,1069.67541 674.702758,1075.75206 Z M488.941595,1062.24215 C488.941595,1068.3188 484.015503,1073.24489 477.938861,1073.24489 C471.862218,1073.24489 466.936126,1068.3188 466.936126,1062.24215 C466.936126,1056.16551 471.862218,1051.23942 477.938861,1051.23942 C484.015503,1051.23942 488.941595,1056.16551 488.941595,1062.24215 Z M154.571503,477.938861 C154.571503,484.015503 149.645411,488.941595 143.568768,488.941595 C137.492126,488.941595 132.566033,484.015503 132.566033,477.938861 C132.566033,471.862218 137.492126,466.936126 143.568768,466.936126 C149.645411,466.936126 154.571503,471.862218 154.571503,477.938861 Z M850.331494,1016.08332 C850.331494,1020.01422 848.234385,1023.64652 844.830127,1025.61197 C841.425868,1027.57742 837.231649,1027.57742 833.827391,1025.61197 C830.423133,1023.64652 828.326024,1020.01422 828.326024,1016.08332 C828.326025,1010.00668 833.252117,1005.08058 839.328759,1005.08058 C845.405401,1005.08058 850.331493,1010.00668 850.331494,1016.08332 Z" id="Shape" transform="translate(603.468374, 603.468374) rotate(-17.000000) translate(-603.468374, -603.468374) "></path>
            </g>
        </g>
    </g>
</svg>